<svg width="797" height="533" viewBox="0 0 797 533" fill="none" xmlns="http://www.w3.org/2000/svg">
<g clip-path="url(#clip0_5_108)">
<path d="M483.713 523.303C619.998 523.303 730.479 491.686 730.479 452.684C730.479 413.682 619.998 382.065 483.713 382.065C347.428 382.065 236.947 413.682 236.947 452.684C236.947 491.686 347.428 523.303 483.713 523.303Z" fill="#F5F5F5"/>
<path d="M718.494 177.969C718.494 177.969 674.781 221.753 699.457 286.723C724.134 351.692 657.155 459.739 657.155 459.739C657.155 459.739 657.86 459.633 659.206 459.4C748.987 443.525 793.595 340.675 743.671 264.273C725.135 235.87 709.871 202.545 718.494 177.969Z" fill="#2091F9"/>
<path d="M718.494 177.969C718.494 177.969 693.817 231.64 718.494 275.424C743.17 319.207 722.724 442.084 657.155 459.739" stroke="#535461" stroke-width="2" stroke-miterlimit="10"/>
<path d="M796.345 355.061C796.345 355.061 746.463 347.102 741.915 391.881C737.368 436.661 646.029 442.861 646.029 442.861C646.029 442.861 646.621 443.271 647.742 444.005C723.182 493.608 795.301 475.6 784.437 409.734C780.369 385.25 780.693 360.654 796.345 355.061Z" fill="#2091F9"/>
<path opacity="0.2" d="M796.345 355.061C796.345 355.061 746.463 347.102 741.915 391.881C737.368 436.661 646.029 442.861 646.029 442.861C646.029 442.861 646.621 443.271 647.742 444.005C723.182 493.608 795.301 475.6 784.437 409.734C780.369 385.25 780.693 360.654 796.345 355.061Z" fill="#F5F5F5"/>
<path d="M796.345 355.061C796.345 355.061 757.624 363.577 760.803 398.844C763.983 434.111 703.279 476.37 646.001 442.847" stroke="#535461" stroke-width="2" stroke-miterlimit="10"/>
<path opacity="0.2" d="M226.244 9.35962C220.561 9.16188 214.738 9.35961 209.408 11.3511C194.905 16.7675 188.031 34.4858 190.266 49.8313C192.501 65.1768 201.694 78.5026 211.234 90.7126C220.773 102.923 231.109 114.977 236.34 129.553C238.949 136.834 240.169 144.99 237.518 152.257C233.429 163.464 221.097 169.728 209.259 171.028C197.422 172.327 185.535 169.792 173.655 168.909C168.67 168.556 163.544 168.514 158.849 170.152C153.695 171.939 149.401 175.583 145.453 179.382C130.047 194.282 117.716 214.621 119.711 235.976C121.968 260.184 142.09 279.322 164.129 289.583C171.427 292.987 179.147 295.741 185.57 300.599C202.491 313.41 206.291 337.413 204.606 358.606C202.921 379.798 197.182 401.012 200.376 422.021C204.134 446.456 220.766 468.524 243.2 478.834C263.189 488.015 288.204 487.443 305.95 474.456C314.601 468.1 321.143 459.336 326.833 450.248C335.421 436.536 342.389 421.872 347.597 406.549C350.071 399.268 352.398 391.436 358.172 386.373C361.698 383.259 366.266 381.514 370.786 380.159C384.407 376.077 398.755 374.954 412.503 371.324C426.252 367.694 440.085 360.929 447.558 348.832C458.134 331.664 453.199 309.709 453.248 289.512C453.333 243.497 480.822 202.298 490.968 157.455C494.282 142.794 495.516 126.573 488.113 113.501C483.079 104.582 474.597 98.2265 465.678 93.2832C446.078 82.3796 423.798 77.5281 401.878 72.8037C371.413 66.2502 334.419 65.4028 310.807 44.203C288.147 23.8647 257.146 9.35962 226.244 9.35962Z" fill="#2091F9"/>
<g opacity="0.5">
<path opacity="0.5" d="M336.753 187.468C336.752 176.376 335.017 165.354 331.613 154.799L323.153 128.522C323.153 128.084 323.153 127.653 323.153 127.223C323.414 110.38 310.307 101.976 305.259 102.887C300.091 103.82 285.75 96.6164 285.75 96.6164V96.8141C284.767 95.6804 283.88 94.4663 283.099 93.1843C285.577 91.3768 287.669 89.0915 289.252 86.4626C290.835 83.8337 291.878 80.9143 292.319 77.876C292.76 74.8377 292.59 71.7418 291.819 68.7703C291.048 65.7987 289.692 63.0115 287.83 60.5725C289.38 59.406 290.562 57.8174 291.235 55.9964C292.406 52.6985 291.51 48.9345 289.607 45.9967C288.797 44.7704 287.851 43.6403 286.786 42.6282C285.174 41.0281 283.413 39.5857 281.527 38.3205C276.824 35.0579 271.656 32.2543 266.016 31.2586C265.04 31.0277 264.024 31.0277 263.048 31.2586C262.2 31.601 261.394 32.0368 260.643 32.558C256.78 34.7613 251.971 33.8079 247.515 33.5749C243.059 33.3418 237.645 34.5918 236.235 38.7795C235.797 40.0718 235.826 41.4701 235.53 42.7977C234.825 46.0462 232.322 48.5673 230.39 51.272C228.458 53.9767 227.013 57.6277 228.62 60.5654C229.17 61.5541 230.03 62.4651 230.03 63.595C230.03 64.4071 229.551 65.1345 229.325 65.9113C228.839 67.6768 229.755 69.4422 231.165 70.7204C231.773 71.3766 232.488 71.9236 233.28 72.3376C235.515 73.4816 238.089 73.8347 240.366 74.894C241.503 75.4287 242.546 76.1442 243.454 77.0126C244.567 78.1795 245.437 79.5566 246.013 81.0636C246.589 82.5707 246.86 84.1775 246.81 85.7905L247.283 85.84C247.283 85.9812 247.283 86.1154 247.283 86.2566C247.776 86.3131 248.298 86.3625 248.813 86.3837C249.553 87.5809 250.4 88.7083 251.344 89.7522C251.184 90.3549 251.003 90.9669 250.801 91.5883C249.144 92.7394 235.593 101.779 220.181 99.6036C203.732 97.2802 194.327 169.312 194.327 169.312C193.717 173.431 193.42 177.59 193.438 181.755C193.368 192.347 195.589 206.21 207.962 204.169L214.54 202.001V237.628C214.54 237.628 215.478 247.388 212.192 253.871C208.907 260.354 222.536 258.051 222.536 258.051C222.536 258.051 223.057 258.595 224.016 259.52L223.713 260.375L224.115 260.784C222.322 266.922 219.906 272.859 216.902 278.503L217.29 278.7C217.043 279.173 216.902 279.407 216.902 279.407C216.902 279.407 221.964 281.998 228.93 285.339C234.528 304.293 246.782 348.189 242.749 356.551L242.862 356.791C243.616 358.359 247.833 367.603 246.98 376.07C246.211 383.64 256.674 418.039 260.58 430.531L258.733 430.905L265.311 454.605L263.901 469.943C263.901 469.943 255.912 491.32 274.709 487.139C293.506 482.959 288.338 465.763 288.338 465.763L288.81 430.905C288.81 430.905 286.998 429.895 284.763 428.928C283.226 424.769 279.877 414.938 279.877 408.138C279.877 399.31 273.764 361.197 273.764 361.197V361.12V360.971V360.929L273.729 360.421V360.336C273.729 359.863 273.651 359.213 273.595 358.422V358.38C272.89 348.076 270.775 313.071 272.319 294.823C273.677 293.895 275.089 293.051 276.549 292.294C281.125 303.876 292.92 335.167 292.166 348.295C291.228 364.538 291.933 351.784 292.166 349.708C292.236 349.065 292.286 349.842 292.307 351.586C292.307 351.904 292.307 352.257 292.307 352.631C292.307 353.006 292.307 353.422 292.307 353.853C292.307 354.284 292.307 354.75 292.307 355.265C292.307 355.51 292.307 355.76 292.307 356.014C292.307 356.522 292.307 357.054 292.307 357.61C292.307 357.888 292.307 358.17 292.307 358.457C292.307 359.87 292.307 361.438 292.258 363.069C292.258 363.394 292.258 363.723 292.258 364.057C292.258 365.053 292.258 366.07 292.208 367.101C292.208 368.513 292.152 369.884 292.124 371.303C292.053 374.481 291.962 377.694 291.849 380.702C291.849 381.037 291.837 381.368 291.813 381.698C291.79 382.357 291.764 383.002 291.736 383.633C291.708 384.264 291.679 384.881 291.651 385.483C291.623 386.081 291.593 386.663 291.56 387.228C291.524 387.891 291.482 388.527 291.447 389.134L288.895 388.767L288.352 394.642C287.496 403.971 288.7 413.373 291.877 422.184C292.751 424.599 293.428 426.598 293.576 427.311C294.048 429.634 293.576 446.378 293.576 446.378C293.576 446.378 296.396 468.22 309.559 464.033C315.482 462.147 318.358 456.413 319.733 450.665C321.259 444.001 320.69 437.028 318.105 430.701C316.236 425.997 314.326 419.402 315.672 414.303C318.02 405.475 318.02 392.926 318.02 392.926L316.568 392.722C316.93 392.032 317.257 391.325 317.548 390.603C317.548 390.603 317.075 358.535 321.306 354.354C323.632 352.052 323.421 346.523 322.716 342.003C321.708 335.462 321.472 328.826 322.011 322.23C322.3 318.833 322.716 315.874 323.202 314.822C324.443 312.364 325.684 287.591 320.192 275.671L321.32 275.318L321.143 274.442L321.32 274.386C322.148 276.6 323.089 278.771 324.14 280.89C324.417 281.107 324.736 281.266 325.078 281.356C340.3 278.679 340.913 264.449 340.067 256.681C340.708 256.992 341.061 257.19 341.061 257.19L342.471 236.71C343.916 233.441 344.452 229.267 344.417 224.755C344.48 208.625 336.753 187.468 336.753 187.468ZM319.973 245.679C318.93 236.76 317.484 228.363 317.484 228.363L310.434 203.265V194.127L321.616 235.933L319.973 245.679Z" fill="url(#paint0_linear_5_108)"/>
</g>
<path d="M288.274 382.771L287.752 388.513C286.929 397.635 288.096 406.828 291.172 415.454C292.011 417.82 292.667 419.769 292.808 420.468C293.259 422.742 292.808 439.09 292.808 439.09C292.808 439.09 295.529 460.438 308.227 456.349C313.938 454.513 316.687 448.899 318.041 443.285C319.509 436.774 318.958 429.969 316.462 423.78C314.657 419.183 312.81 412.721 314.114 407.756C316.384 399.127 316.384 386.867 316.384 386.867L288.274 382.771Z" fill="#5A5773"/>
<path d="M274.674 284.216C274.674 284.216 292.356 327.364 291.447 343.253C290.537 359.142 291.221 346.657 291.447 344.616C291.849 340.979 291.447 384.163 290.086 389.106C290.086 389.106 308.678 402.728 315.933 384.565C315.933 384.565 315.482 353.232 319.557 349.143C321.799 346.897 321.581 341.488 320.918 337.074C319.94 330.689 319.703 324.213 320.213 317.774C320.488 314.455 320.868 311.531 321.362 310.535C322.723 307.809 324.083 276.928 315.919 268.298L274.674 284.216Z" fill="#605D82"/>
<path opacity="0.1" d="M292.356 389.127C293.717 384.134 294.119 340.979 293.717 344.637C293.491 346.678 292.808 359.171 293.717 343.274C294.627 327.378 276.944 284.237 276.944 284.237L316.504 268.997C316.321 268.764 316.131 268.545 315.94 268.341L274.681 284.237C274.681 284.237 292.363 327.385 291.454 343.274C290.544 359.164 291.228 346.678 291.454 344.637C291.856 341 291.454 384.184 290.093 389.127C290.093 389.127 297.517 394.565 304.815 393.986C298.321 393.499 292.356 389.127 292.356 389.127Z" fill="black"/>
<path d="M259.254 424.098L265.6 447.261L264.239 462.246C264.239 462.246 256.533 483.135 274.667 479.046C292.8 474.957 287.816 458.157 287.816 458.157L288.267 424.098C288.267 424.098 281.012 420.009 277.839 420.468C274.667 420.927 259.254 424.098 259.254 424.098Z" fill="#5A5773"/>
<path d="M227.971 273.319C227.971 273.319 248.827 340.986 243.842 351.431C243.842 351.431 248.827 361.423 247.924 370.498C247.022 379.573 262.434 428.172 262.434 428.172L285.108 424.084C285.108 424.084 279.665 410.461 279.665 401.832C279.665 393.202 273.771 355.929 273.771 355.929C273.771 355.929 268.787 287.803 274.681 280.537L227.971 273.319Z" fill="#605D82"/>
<g opacity="0.1">
<path opacity="0.1" d="M272.918 286.073C269.16 301.496 273.313 358.253 273.313 358.253C273.313 358.253 279.207 395.49 279.207 404.155C279.207 410.744 282.373 420.235 283.875 424.359L285.101 424.14C285.101 424.14 279.658 410.518 279.658 401.888C279.658 393.258 273.764 355.986 273.764 355.986C273.764 355.986 269.971 304.116 272.918 286.073Z" fill="black"/>
<path opacity="0.1" d="M243.842 351.431L243.955 351.664C243.99 351.431 244.025 351.184 244.047 350.958C243.987 351.119 243.918 351.277 243.842 351.431Z" fill="black"/>
<path opacity="0.1" d="M273.651 282.768C273.857 281.985 274.204 281.245 274.674 280.586L227.971 273.319C227.971 273.319 228.246 274.202 228.719 275.777L273.651 282.768Z" fill="black"/>
</g>
<path d="M336.788 248.793C336.788 248.793 343.592 274.216 323.188 277.86C322.857 277.774 322.547 277.62 322.278 277.408C322.278 277.408 310.49 254.245 319.557 245.164L336.788 248.793Z" fill="#FAC3CA"/>
<path d="M253.36 79.8657C253.36 79.8657 254.721 98.9328 239.76 108.022C224.799 117.11 271.487 142.081 271.487 142.081L295.973 103.022C295.973 103.022 285.553 104.371 279.207 86.2214L253.36 79.8657Z" fill="#FAC3CA"/>
<path opacity="0.1" d="M243.384 109.37C243.384 109.37 266.509 157.511 287.365 112.096L319.557 271.949C319.557 271.949 269.675 287.394 269.231 294.66C268.787 301.927 218.912 276.045 218.912 276.045C218.912 276.045 229.79 256.06 227.076 243.801C224.362 231.541 243.384 109.37 243.384 109.37Z" fill="black"/>
<path d="M243.384 108.459C243.384 108.459 266.509 156.6 287.365 111.185L319.557 271.045C319.557 271.045 269.675 286.49 269.231 293.756C268.787 301.023 218.912 275.134 218.912 275.134C218.912 275.134 229.79 255.149 227.076 242.889C224.362 230.63 243.384 108.459 243.384 108.459Z" fill="#E1E7EF"/>
<path d="M266.058 436.816C266.058 436.816 260.164 423.646 273.764 423.646C287.365 423.646 285.101 435.453 285.101 435.453L266.058 436.816Z" fill="#5A5773"/>
<path d="M296.89 402.75C296.89 402.75 291.447 388.668 305.054 388.216C318.662 387.764 311.858 400.928 311.858 400.928L296.89 402.75Z" fill="#5A5773"/>
<path opacity="0.1" d="M285.327 98.2266C285.327 98.2266 299.153 105.288 304.145 104.356C309.136 103.424 322.279 112.075 321.376 129.334L329.569 155.082C332.846 165.406 334.511 176.175 334.504 187.009C334.504 187.009 346.292 219.705 339.947 234.239L338.586 254.224C338.586 254.224 328.159 248.32 317.273 250.135L320.015 233.815L307.748 187.482L287.343 137.978L285.327 98.2266Z" fill="black"/>
<path d="M285.327 97.3296C285.327 97.3296 299.153 104.391 304.145 103.459C309.136 102.527 322.279 111.178 321.376 128.437L329.569 154.185C332.846 164.509 334.511 175.278 334.504 186.112C334.504 186.112 346.292 218.808 339.947 233.342L338.586 253.327C338.586 253.327 328.159 247.423 317.273 249.238L319.994 232.89L307.748 186.571L287.365 137.067L285.327 97.3296Z" fill="#67647E"/>
<path opacity="0.1" d="M308.227 152.511V203.83L315.031 228.356C315.031 228.356 319.564 255.149 318.203 263.327C316.843 271.504 295.078 273.319 289.184 266.504C283.289 259.69 286.462 201.535 286.462 201.535L285.327 116.404L286.237 113.678L308.227 152.511Z" fill="black"/>
<path d="M309.158 150.245V201.563L315.961 226.089C315.961 226.089 320.495 252.882 319.134 261.06C317.773 269.238 296.008 271.052 290.114 264.238C284.22 257.423 287.393 199.268 287.393 199.268L286.258 114.116L309.158 150.245Z" fill="#67647E"/>
<path opacity="0.1" d="M217.769 192.934L232.279 238.13L225.476 257.43C225.476 257.43 257.668 291.49 278.072 275.141C278.072 275.141 280.342 205.652 275.802 189.304C271.261 172.956 249.504 117.979 249.504 117.979L244.998 103.467L220.97 117.089L217.769 192.934Z" fill="black"/>
<path d="M216.634 190.66V235.15C216.634 235.15 217.544 244.69 214.364 251.046C211.184 257.402 224.34 255.135 224.34 255.135C224.34 255.135 256.533 289.194 276.937 272.846C276.937 272.846 279.207 203.357 274.667 187.009C270.126 170.66 248.368 115.684 248.368 115.684L243.835 101.15L219.807 114.773L216.634 190.66Z" fill="#67647E"/>
<path opacity="0.1" d="M251.774 93.248C251.774 93.248 237.948 103.467 222.077 101.193C206.207 98.9187 197.14 169.319 197.14 169.319C197.14 169.319 191.246 205.652 210.289 202.474L252.458 188.393C252.458 188.393 243.391 178.852 244.752 166.593L224.34 174.764L225.257 135.711L251.774 93.248Z" fill="black"/>
<path opacity="0.1" d="M198.042 168.408C198.042 168.408 192.148 204.741 211.191 201.563L253.36 187.482C253.36 187.482 244.293 177.948 245.654 165.682L225.257 173.86L198.042 168.408Z" fill="black"/>
<path d="M244.653 170.47C244.653 170.47 258.803 151.833 269.224 160.781C279.644 169.728 248.39 186.126 248.39 186.126L244.653 170.47Z" fill="#FAC3CA"/>
<path d="M251.774 92.3369C251.774 92.3369 237.948 102.555 222.077 100.282C206.207 98.0076 197.14 168.408 197.14 168.408C197.14 168.408 191.246 204.741 210.289 201.563L252.458 187.482C252.458 187.482 243.391 177.941 244.752 165.682L224.34 173.859L225.257 134.8L248.383 115.733L251.774 92.3369Z" fill="#67647E"/>
<path opacity="0.1" d="M279.658 87.1113L253.811 80.7556C253.811 80.7556 255.158 82.281 253.586 88.2483C257.746 93.0292 262.857 99.3778 269.682 99.3778C274.566 99.387 279.321 97.8085 283.233 94.8794C281.773 92.4225 280.575 89.8189 279.658 87.1113Z" fill="black"/>
<path d="M269.231 98.4739C281.753 98.4739 291.905 88.3058 291.905 75.7628C291.905 63.2198 281.753 53.0518 269.231 53.0518C256.708 53.0518 246.556 63.2198 246.556 75.7628C246.556 88.3058 256.708 98.4739 269.231 98.4739Z" fill="#FAC3CA"/>
<path opacity="0.1" d="M277.825 65.9042C283.085 65.0073 288.866 62.6699 290.629 57.6277C291.757 54.4004 290.897 50.7282 289.057 47.854C287.217 44.9798 284.509 42.7694 281.717 40.7921C277.184 37.6001 272.185 34.8601 266.728 33.8997C265.787 33.6744 264.806 33.6744 263.865 33.8997C263.047 34.2352 262.269 34.6615 261.546 35.1708C257.816 37.3247 253.177 36.3926 248.855 36.1666C244.533 35.9406 239.351 37.1623 237.99 41.2511C237.567 42.5152 237.595 43.8782 237.285 45.1776C236.58 48.3554 234.19 50.8271 232.35 53.4753C230.51 56.1235 229.093 59.7039 230.644 62.5569C231.172 63.5244 232.054 64.4141 232.054 65.5158C231.918 66.2988 231.681 67.0608 231.349 67.7827C230.707 70.1272 232.575 72.493 234.733 73.6087C236.89 74.7245 239.372 75.0705 241.572 76.1086C243.631 77.1263 245.355 78.7148 246.538 80.6853C247.722 82.6558 248.315 84.9254 248.249 87.2241C250.251 87.4571 252.585 87.5772 253.938 86.08C254.545 85.4092 254.841 84.5123 255.391 83.7991C256.096 82.8669 257.196 82.3161 258.098 81.5675C262.843 77.6623 259.473 72.267 262.159 68.0581C263.569 65.8901 265.811 66.5539 268.082 66.5892C271.344 66.6657 274.606 66.4363 277.825 65.9042Z" fill="black"/>
<path d="M277.374 65.4523C282.634 64.5555 288.415 62.218 290.178 57.1758C291.306 53.9485 290.446 50.2763 288.606 47.4021C286.765 44.5279 284.058 42.3175 281.266 40.3402C276.733 37.1482 271.734 34.4082 266.277 33.4478C265.336 33.2225 264.355 33.2225 263.414 33.4478C262.596 33.7833 261.818 34.2096 261.095 34.7189C257.365 36.8728 252.726 35.9407 248.404 35.7147C244.082 35.4887 238.9 36.7104 237.539 40.7992C237.116 42.0633 237.144 43.4263 236.834 44.7257C236.129 47.9035 233.739 50.3752 231.899 53.0234C230.058 55.6716 228.641 59.252 230.192 62.105C230.721 63.0725 231.602 63.9622 231.602 65.0639C231.466 65.8469 231.229 66.6089 230.897 67.3308C230.256 69.6753 232.124 72.0411 234.282 73.1568C236.439 74.2726 238.921 74.6186 241.121 75.6567C243.188 76.6734 244.919 78.265 246.107 80.2413C247.295 82.2175 247.889 84.4947 247.819 86.8004C249.821 87.0335 252.155 87.1535 253.508 85.6564C254.115 84.9855 254.411 84.0887 254.961 83.3754C255.666 82.4432 256.766 81.8924 257.668 81.1438C262.413 77.2386 259.043 71.8433 261.729 67.6344C263.139 65.4664 265.381 66.1303 267.652 66.1656C270.907 66.2314 274.162 65.9926 277.374 65.4523Z" fill="#4A4347"/>
<path opacity="0.1" d="M304.822 141.841C304.822 141.841 309.806 167.73 307.543 177.722C306.16 183.535 306.365 189.614 308.135 195.321" fill="black"/>
<path opacity="0.1" d="M224.242 152.737C224.242 152.737 222.07 169.997 225.687 173.626L224.242 152.737Z" fill="black"/>
<path d="M350.847 365.434C351.127 365.434 351.396 365.323 351.595 365.124C351.793 364.926 351.905 364.656 351.905 364.375C351.905 364.094 351.793 363.825 351.595 363.626C351.396 363.428 351.127 363.316 350.847 363.316C350.567 363.316 350.298 363.428 350.099 363.626C349.901 363.825 349.789 364.094 349.789 364.375C349.789 364.656 349.901 364.926 350.099 365.124C350.298 365.323 350.567 365.434 350.847 365.434Z" fill="black"/>
<g opacity="0.5">
<path opacity="0.5" d="M676.487 242.028V241.442L484.122 93.2834C484.001 93.1934 483.854 93.1448 483.702 93.1448C483.551 93.1448 483.404 93.1934 483.283 93.2834L290.911 241.442V471.095H291.278V471.462H676.861V241.809L676.487 242.028Z" fill="url(#paint1_linear_5_108)"/>
</g>
<path d="M669.845 464.69H297.581V242.946L483.713 99.5896L669.845 242.946V464.69Z" fill="white"/>
<path d="M656.449 451.547H310.977V245.764L483.713 112.725L656.449 245.764V451.547Z" fill="#E0E0E0"/>
<path d="M542.315 109.65L331.576 164.986L401.842 433.447L612.58 378.11L542.315 109.65Z" fill="#2091F9"/>
<path d="M593.7 150.435H375.841V427.968H593.7V150.435Z" fill="#F5F5F5"/>
<path opacity="0.05" d="M299.343 243.299L485.476 354.171L299.343 465.043V243.299Z" fill="black"/>
<path d="M297.933 243.299L484.066 354.171L297.933 465.043V243.299Z" fill="white"/>
<path opacity="0.05" d="M668.788 243.299L482.656 354.171L668.788 465.043V243.299Z" fill="black"/>
<path d="M670.198 243.299L484.066 354.171L670.198 465.043V243.299Z" fill="white"/>
<path opacity="0.05" d="M297.933 461.512L484.066 316.037L670.198 461.512H297.933Z" fill="black"/>
<path d="M297.933 465.042L484.066 319.567L670.198 465.042H297.933Z" fill="white"/>
<path d="M335.759 481.885C335.759 481.885 326.41 450.107 337.515 426.704C342.233 416.921 343.655 405.869 341.569 395.208C340.539 390.155 339.05 385.207 337.12 380.427" stroke="#535461" stroke-width="2" stroke-miterlimit="10"/>
<path d="M344.022 365.639C344.022 369.537 336.972 380.829 336.972 380.829C336.972 380.829 329.921 369.53 329.921 365.639C329.921 363.766 330.664 361.97 331.986 360.646C333.308 359.321 335.102 358.577 336.972 358.577C338.842 358.577 340.635 359.321 341.957 360.646C343.279 361.97 344.022 363.766 344.022 365.639Z" fill="#6C63FF"/>
<path d="M355.691 387.221C353.575 390.49 341.533 396.14 341.533 396.14C341.533 396.14 341.752 382.821 343.867 379.551C344.921 378.073 346.505 377.058 348.287 376.718C350.069 376.379 351.914 376.74 353.437 377.728C354.96 378.716 356.044 380.254 356.464 382.022C356.883 383.79 356.607 385.652 355.691 387.221Z" fill="#6C63FF"/>
<path d="M355.155 424.091C351.679 425.842 338.438 424.634 338.438 424.634C338.438 424.634 345.341 413.251 348.809 411.499C349.64 411.034 350.555 410.742 351.501 410.64C352.447 410.539 353.404 410.63 354.313 410.909C355.223 411.188 356.067 411.648 356.795 412.262C357.522 412.876 358.118 413.631 358.547 414.481C358.975 415.332 359.227 416.261 359.288 417.212C359.349 418.163 359.217 419.116 358.9 420.015C358.583 420.913 358.088 421.738 357.444 422.44C356.8 423.141 356.022 423.705 355.155 424.098V424.091Z" fill="#6C63FF"/>
<path d="M348.499 451.907C345.369 454.224 332.114 455.269 332.114 455.269C332.114 455.269 336.993 442.882 340.123 440.566C341.629 439.56 343.465 439.172 345.248 439.484C347.032 439.796 348.628 440.783 349.704 442.241C350.781 443.699 351.257 445.516 351.032 447.316C350.808 449.115 349.901 450.759 348.499 451.907Z" fill="#6C63FF"/>
<path d="M326.72 396.888C329.54 399.6 342.506 402.418 342.506 402.418C342.506 402.418 339.327 389.487 336.535 386.776C335.176 385.573 333.408 384.941 331.597 385.01C329.786 385.079 328.071 385.844 326.808 387.146C325.545 388.448 324.831 390.188 324.815 392.003C324.799 393.818 325.481 395.57 326.72 396.895V396.888Z" fill="#6C63FF"/>
<path d="M319.346 429.521C322.821 431.273 336.062 430.065 336.062 430.065C336.062 430.065 329.16 418.681 325.691 416.93C324.035 416.18 322.153 416.1 320.439 416.707C318.726 417.313 317.312 418.559 316.493 420.185C315.674 421.81 315.514 423.689 316.046 425.43C316.577 427.171 317.759 428.639 319.346 429.528V429.521Z" fill="#6C63FF"/>
<path d="M316.525 462.218C319.656 464.534 332.911 465.579 332.911 465.579C332.911 465.579 328.032 453.193 324.901 450.876C324.162 450.271 323.308 449.823 322.391 449.558C321.473 449.293 320.512 449.217 319.565 449.336C318.617 449.454 317.704 449.764 316.88 450.247C316.055 450.73 315.338 451.375 314.77 452.144C314.202 452.912 313.796 453.789 313.577 454.719C313.357 455.65 313.329 456.615 313.493 457.557C313.657 458.499 314.01 459.398 314.532 460.199C315.053 461 315.731 461.687 316.525 462.218Z" fill="#6C63FF"/>
<path opacity="0.5" d="M475.958 163.147H388.532V170.209H475.958V163.147Z" fill="#6C63FF"/>
<path opacity="0.5" d="M577.484 191.394H388.532V198.456H577.484V191.394Z" fill="#6C63FF"/>
<path opacity="0.5" d="M577.484 209.755H388.532V216.817H577.484V209.755Z" fill="#6C63FF"/>
<path opacity="0.4" d="M577.484 228.116H388.532V235.178H577.484V228.116Z" fill="#6C63FF"/>
<path opacity="0.4" d="M577.484 246.477H388.532V253.539H577.484V246.477Z" fill="#6C63FF"/>
<path opacity="0.3" d="M496.404 264.838H388.532V271.9H496.404V264.838Z" fill="#6C63FF"/>
<path opacity="0.3" d="M535.887 283.199H388.532V290.261H535.887V283.199Z" fill="#6C63FF"/>
</g>
<defs>
<linearGradient id="paint0_linear_5_108" x1="193.445" y1="259.421" x2="344.339" y2="259.421" gradientUnits="userSpaceOnUse">
<stop stop-color="#808080" stop-opacity="0.25"/>
<stop offset="0.54" stop-color="#808080" stop-opacity="0.12"/>
<stop offset="1" stop-color="#808080" stop-opacity="0.1"/>
</linearGradient>
<linearGradient id="paint1_linear_5_108" x1="246075" y1="280256" x2="246075" y2="77572.5" gradientUnits="userSpaceOnUse">
<stop stop-color="#808080" stop-opacity="0.25"/>
<stop offset="0.54" stop-color="#808080" stop-opacity="0.12"/>
<stop offset="1" stop-color="#808080" stop-opacity="0.1"/>
</linearGradient>
<clipPath id="clip0_5_108">
<rect width="677" height="514" fill="white" transform="translate(119.5 9.30322)"/>
</clipPath>
</defs>
</svg>
