<svg width="42" height="42" viewBox="0 0 42 42" fill="none" xmlns="http://www.w3.org/2000/svg">
<path d="M35.6981 4.78516H6.23896C5.5305 4.78516 4.95813 5.35753 4.95813 6.06599V35.5251C4.95813 36.2336 5.5305 36.8059 6.23896 36.8059H35.6981C36.4065 36.8059 36.9789 36.2336 36.9789 35.5251V6.06599C36.9789 5.35753 36.4065 4.78516 35.6981 4.78516ZM14.4563 32.0709H9.70521V16.7889H14.4563V32.0709ZM12.0828 14.6996C11.5381 14.6996 11.0057 14.5381 10.5528 14.2355C10.1 13.9329 9.74701 13.5028 9.53859 12.9996C9.33016 12.4964 9.27562 11.9427 9.38188 11.4086C9.48813 10.8744 9.75041 10.3837 10.1355 9.99858C10.5207 9.61346 11.0113 9.35118 11.5455 9.24493C12.0797 9.13867 12.6334 9.19321 13.1366 9.40164C13.6398 9.61006 14.0699 9.96302 14.3724 10.4159C14.675 10.8687 14.8365 11.4012 14.8365 11.9458C14.8325 13.4668 13.5997 14.6996 12.0828 14.6996ZM32.2438 32.0709H27.4968V24.638C27.4968 22.8649 27.4647 20.5874 25.0272 20.5874C22.5576 20.5874 22.1773 22.5167 22.1773 24.51V32.0709H17.4342V16.7889H21.9892V18.8783H22.0532C22.6856 17.6775 24.2346 16.4087 26.5481 16.4087C31.3593 16.4087 32.2438 19.5748 32.2438 23.6894V32.0709Z" fill="white"/>
</svg>
