<svg width="42" height="42" viewBox="0 0 42 42" fill="none" xmlns="http://www.w3.org/2000/svg">
<path d="M35.7103 4.78516H6.25117C5.54271 4.78516 4.97034 5.35753 4.97034 6.06599V35.5251C4.97034 36.2336 5.54271 36.8059 6.25117 36.8059H35.7103C36.4187 36.8059 36.9911 36.2336 36.9911 35.5251V6.06599C36.9911 5.35753 36.4187 4.78516 35.7103 4.78516ZM32.0119 14.1312H29.4542C27.4489 14.1312 27.0607 15.0838 27.0607 16.4847V19.5708H31.8478L31.2234 24.4019H27.0607V36.8059H22.0694V24.4059H17.8947V19.5708H22.0694V16.0084C22.0694 11.8738 24.5951 9.62029 28.2855 9.62029C30.0546 9.62029 31.5716 9.75238 32.0159 9.81242V14.1312H32.0119Z" fill="white"/>
</svg>
