<svg width="42" height="42" viewBox="0 0 42 42" fill="none" xmlns="http://www.w3.org/2000/svg">
<path d="M37.645 10.4817C36.4202 11.01 35.0873 11.3903 33.7144 11.5384C35.1398 10.6916 36.2072 9.35375 36.7164 7.77592C35.3788 8.5716 33.9136 9.12954 32.3855 9.42499C31.7469 8.74226 30.9745 8.19836 30.1165 7.82719C29.2585 7.45602 28.3332 7.26553 27.3983 7.26759C23.6159 7.26759 20.5739 10.3336 20.5739 14.096C20.5739 14.6244 20.6379 15.1527 20.742 15.661C15.0783 15.3648 10.027 12.6591 6.66887 8.5164C6.05697 9.56154 5.73632 10.7516 5.74026 11.9626C5.74026 14.3322 6.94505 16.4215 8.78224 17.6503C7.69955 17.6077 6.64222 17.3101 5.69624 16.7818V16.8658C5.69624 20.184 8.04176 22.9338 11.1678 23.5662C10.5808 23.7186 9.97704 23.7966 9.37062 23.7983C8.92633 23.7983 8.50606 23.7543 8.08178 23.6943C8.94634 26.4 11.464 28.3653 14.4619 28.4293C12.1164 30.2665 9.17849 31.3472 5.98843 31.3472C5.41605 31.3472 4.88771 31.3272 4.33936 31.2632C7.36532 33.2044 10.9556 34.3252 14.8222 34.3252C27.3743 34.3252 34.2428 23.9264 34.2428 14.9005C34.2428 14.6044 34.2428 14.3082 34.2227 14.012C35.5516 13.0393 36.7164 11.8346 37.645 10.4817Z" fill="white"/>
</svg>
